<svg id="Слой_1" data-name="Слой 1" xmlns="http://www.w3.org/2000/svg" viewBox="0 0 63.75 28.75"><defs><style>.cls-1{fill:#fff;}</style></defs><title>1</title><polygon class="cls-1" points="3.28 7.28 8.43 7.28 8.43 5.21 3.28 5.21 3.28 2.27 9.12 2.27 9.12 0.2 0.06 0.2 0.06 11.34 3.28 11.34 3.28 7.28"/><path class="cls-1" d="M16.1,11.38h0V8.28h1.75L20,11.38h3.39L20.89,7.8A3.62,3.62,0,0,0,23.2,4.28a3.92,3.92,0,0,0-.59-2.15A3.91,3.91,0,0,0,20.94.74,6.26,6.26,0,0,0,18.37.25h-5.5V11.39H16.1Zm0-9h1.61a2.71,2.71,0,0,1,1.76.5,2,2,0,0,1,0,2.84l0,0a2.66,2.66,0,0,1-1.76.51H16.1Z" transform="translate(0 -0.05)"/><polygon class="cls-1" points="3.24 17.61 3.22 17.61 0.66 17.61 0 17.61 0 28.75 0.66 28.75 3.22 28.75 8.82 28.75 8.82 26.65 3.24 26.65 3.24 17.61"/><path class="cls-1" d="M36.05,23a2.79,2.79,0,0,0,1.09-1,2.69,2.69,0,0,0,.39-1.44,2.48,2.48,0,0,0-1.09-2.12,5.34,5.34,0,0,0-3.13-.78H27.19V28.8h6.44A5.8,5.8,0,0,0,37,28a2.58,2.58,0,0,0,1.13-2.25A2.73,2.73,0,0,0,37.54,24a2.89,2.89,0,0,0-1.49-1M30.43,19.6h1.93a2.68,2.68,0,0,1,1.44.33,1.21,1.21,0,0,1,0,2,2.5,2.5,0,0,1-1.44.34H30.43Zm3.91,6.92a2.84,2.84,0,0,1-1.54.34H30.43V24.11H32.8c1.37,0,2.06.46,2.06,1.39a1.14,1.14,0,0,1-.52,1" transform="translate(0 -0.05)"/><polygon class="cls-1" points="63.14 0.2 60.56 0.2 60.53 0.2 60.53 4.59 55.5 4.59 55.5 0.2 55.5 0.2 52.93 0.2 52.28 0.2 52.28 11.34 52.93 11.34 55.5 11.34 55.5 11.34 55.5 6.77 60.53 6.77 60.53 11.34 60.56 11.34 63.14 11.34 63.75 11.34 63.75 0.2 63.14 0.2"/><path class="cls-1" d="M19.32,17.66H16.08L11.21,28.8h3.24l1-2.39h5.18l1,2.39h3.25L20,17.66Zm-3.05,6.8L18,20.2l.38.91,1.39,3.34Z" transform="translate(0 -0.05)"/><path class="cls-1" d="M43.35,2.6a1.32,1.32,0,0,1,.41-.17c1.74-.36,4.77.91,4.89,1l.94-2c-2.7-1.46-7.48-2.3-9.81.55a2.64,2.64,0,0,0-.53,1.71,2.56,2.56,0,0,0,.58,1.74,3.92,3.92,0,0,0,.37.34h0l0,0,.12.09.12.09.11.07.15.09,0,0h0a3.76,3.76,0,0,0,.46.2c.23.09.48.17.76.25A14.93,14.93,0,0,0,43.5,7a12.58,12.58,0,0,1,1.31.35,2.43,2.43,0,0,1,.8.41.83.83,0,0,1,.31.65,1,1,0,0,1-.53.85,1.38,1.38,0,0,1-.41.18c-1.74.35-4.76-.91-4.89-1l-.94,2c2.7,1.46,7.49,2.29,9.81-.56a2.64,2.64,0,0,0,.53-1.71,2.47,2.47,0,0,0-.58-1.73,3,3,0,0,0-.36-.35h0l0,0L48.39,6l-.12-.09-.11-.06A1.19,1.19,0,0,0,48,5.74l0,0h0a3.82,3.82,0,0,0-.46-.21c-.22-.08-.48-.17-.76-.25s-.94-.28-1.51-.4a13.65,13.65,0,0,1-1.32-.35,2.13,2.13,0,0,1-.79-.41.8.8,0,0,1-.31-.65,1,1,0,0,1,.52-.85" transform="translate(0 -0.05)"/><path class="cls-1" d="M42.85,25.53a1.64,1.64,0,1,0,1.64,1.63,1.64,1.64,0,0,0-1.64-1.63h0" transform="translate(0 -0.05)"/><polygon class="cls-1" points="35.67 11.34 35.67 9.27 29.61 9.27 29.61 6.69 34.78 6.69 34.78 4.68 29.61 4.68 29.61 2.27 35.47 2.27 35.47 0.2 29.6 0.2 27.05 0.2 26.38 0.2 26.38 11.34 27.05 11.34 29.6 11.34 35.67 11.34"/></svg>