<svg xmlns="http://www.w3.org/2000/svg"><symbol id="icon_angle_left" viewBox="0 0 36 36"><path d="M0 36V.01h34.356A31.618 31.618 0 0 1 36 .01h-1.644C21.943.327 0 7.737 0 36z"/></symbol><symbol id="icon_angle_right" viewBox="0 0 36 36"><path d="M0 0h35.99v34.356c.014.57.013 1.118 0 1.644v-1.644C35.673 21.943 28.263 0 0 0z"/></symbol><symbol id="icon_arrow" viewBox="0 0 12 8"><path d="M1.53.47A.75.75 0 0 0 .47 1.53L1.53.47zM6 6l-.53.53.53.53.53-.53L6 6zm5.53-4.47A.75.75 0 0 0 10.47.47l1.06 1.06zm-11.06 0l5 5 1.06-1.06-5-5L.47 1.53zm6.06 5l5-5L10.47.47l-5 5 1.06 1.06z"/></symbol><symbol id="icon_arrow_right" viewBox="0 0 8 15"><path d="M.638 13.221a.5.5 0 0 0 .724.691l-.724-.69zM7 7.283l.362.346.33-.346-.33-.345L7 7.283zM1.362.655a.5.5 0 1 0-.724.69l.724-.69zm0 13.257l6-6.283-.724-.691-6 6.283.724.691zm6-6.974l-6-6.283-.724.69 6 6.284.724-.691z"/></symbol><symbol id="icon_calendar" viewBox="0 0 14 14"><path d="M13.203 2.297A.96.96 0 0 0 12.5 2h-1v-.75c0-.344-.122-.638-.367-.883A1.204 1.204 0 0 0 10.25 0h-.5c-.344 0-.638.122-.883.367S8.5.907 8.5 1.25V2h-3v-.75c0-.344-.122-.638-.367-.883A1.204 1.204 0 0 0 4.25 0h-.5c-.344 0-.638.122-.883.367S2.5.907 2.5 1.25V2h-1a.961.961 0 0 0-.703.297A.961.961 0 0 0 .5 3v10c0 .27.099.505.297.703A.961.961 0 0 0 1.5 14h11a.96.96 0 0 0 .703-.297A.961.961 0 0 0 13.5 13V3a.961.961 0 0 0-.297-.703zM9.5 1.25c0-.073.023-.133.07-.18A.243.243 0 0 1 9.75 1h.5c.073 0 .133.024.18.07.046.047.07.107.07.18V3.5a.244.244 0 0 1-.07.18.244.244 0 0 1-.18.07h-.5a.243.243 0 0 1-.18-.07.243.243 0 0 1-.07-.18V1.25zm-6 0c0-.073.023-.133.07-.18A.244.244 0 0 1 3.75 1h.5c.073 0 .133.024.18.07.047.047.07.107.07.18V3.5a.243.243 0 0 1-.07.18.244.244 0 0 1-.18.07h-.5a.243.243 0 0 1-.18-.07.244.244 0 0 1-.07-.18V1.25zm9 11.75h-11V5h11v8z"/></symbol><symbol id="icon_cart" viewBox="0 0 28 30"><path d="M8.006 19.753h16.53a3.41 3.41 0 0 0 3.404-3.404V9.32c0-.012 0-.024-.007-.037 0-.012-.006-.03-.006-.043 0-.012-.006-.024-.006-.037-.006-.012-.006-.024-.012-.043-.006-.012-.006-.024-.013-.037-.006-.012-.006-.024-.012-.037a.29.29 0 0 1-.018-.043.139.139 0 0 0-.019-.03l-.018-.038c-.007-.012-.013-.018-.019-.03-.006-.013-.018-.025-.025-.038-.006-.012-.012-.018-.024-.03-.006-.013-.019-.019-.025-.031-.006-.013-.018-.019-.025-.031-.006-.012-.018-.019-.024-.025l-.031-.03c-.012-.007-.019-.02-.03-.025-.013-.006-.026-.019-.038-.025-.012-.006-.018-.012-.03-.018-.013-.007-.025-.013-.038-.025l-.037-.019-.037-.018-.037-.019c-.012-.006-.024-.006-.037-.012a.114.114 0 0 0-.043-.012c-.012 0-.024-.006-.03-.006-.02-.007-.032-.007-.05-.007-.006 0-.012-.006-.025-.006L6.274 5.677V2.754c0-.03 0-.062-.007-.086 0-.006 0-.013-.006-.025 0-.018-.006-.037-.006-.055-.006-.019-.006-.031-.012-.05 0-.012-.006-.018-.006-.03l-.019-.056c0-.006-.006-.019-.006-.025a.184.184 0 0 0-.025-.049c-.006-.006-.006-.018-.012-.025-.006-.012-.012-.024-.025-.037-.006-.012-.012-.018-.018-.03-.006-.013-.013-.019-.019-.031-.006-.013-.018-.025-.024-.037l-.019-.019-.037-.037-.018-.018c-.013-.013-.025-.025-.044-.037l-.024-.019c-.013-.012-.025-.018-.037-.03a.57.57 0 0 0-.05-.031c-.006-.007-.012-.007-.018-.013-.025-.012-.056-.024-.08-.037L1.218.066A.831.831 0 0 0 .126.51.831.831 0 0 0 .57 1.6l4.033 1.702V21.54a3.407 3.407 0 0 0 2.965 3.372 3.363 3.363 0 0 0-.48 1.727c0 1.856 1.51 3.36 3.36 3.36 1.85 0 3.36-1.51 3.36-3.36 0-.617-.166-1.203-.463-1.696h7.486a3.313 3.313 0 0 0-.463 1.696c0 1.856 1.51 3.36 3.36 3.36 1.85 0 3.36-1.51 3.36-3.36 0-1.85-1.51-3.36-3.36-3.36H8.006a1.74 1.74 0 0 1-1.739-1.74v-2.256a3.442 3.442 0 0 0 1.74.469zm4.143 6.88c0 .938-.764 1.696-1.695 1.696a1.703 1.703 0 0 1-1.696-1.695c0-.931.765-1.696 1.696-1.696.93 0 1.695.758 1.695 1.696zm13.281 0c0 .938-.764 1.696-1.695 1.696a1.702 1.702 0 0 1-1.696-1.695c0-.931.765-1.696 1.696-1.696.93 0 1.695.758 1.695 1.696zm-.894-8.545H8.006a1.74 1.74 0 0 1-1.739-1.739V7.354l20.008 2.756v6.233c0 .968-.783 1.745-1.739 1.745z"/></symbol><symbol id="icon_close" viewBox="0 0 16 17"><path stroke-linecap="round" d="M15 1.476L.707 15.769m0-13.846L15 16.216"/></symbol><symbol id="icon_dots" viewBox="0 0 13 4"><path d="M2.096 3.128A1.5 1.5 0 0 1 .992 2.68a1.52 1.52 0 0 1-.448-1.12c0-.459.15-.827.448-1.104A1.53 1.53 0 0 1 2.096.024c.437 0 .805.144 1.104.432.299.277.448.645.448 1.104 0 .448-.15.821-.448 1.12a1.5 1.5 0 0 1-1.104.448zm4.187 0A1.5 1.5 0 0 1 5.18 2.68a1.523 1.523 0 0 1-.448-1.12c0-.459.15-.827.448-1.104A1.53 1.53 0 0 1 6.283.024c.438 0 .806.144 1.104.432.3.277.448.645.448 1.104 0 .448-.149.821-.448 1.12a1.5 1.5 0 0 1-1.104.448zm4.188 0a1.5 1.5 0 0 1-1.104-.448c-.299-.299-.448-.672-.448-1.12 0-.459.15-.827.448-1.104A1.53 1.53 0 0 1 10.47.024c.437 0 .805.144 1.104.432.299.277.448.645.448 1.104 0 .448-.15.821-.448 1.12a1.5 1.5 0 0 1-1.104.448z"/></symbol><symbol id="icon_facebook" viewBox="0 0 10 20"><path fill-rule="evenodd" clip-rule="evenodd" d="M9.985 0H6.59C4.573 0 2.332.798 2.332 3.547c.01.958 0 1.876 0 2.908H0v3.492h2.404V20H6.82V9.881h2.915L10 6.446H6.745s.007-1.528 0-1.972c0-1.087 1.201-1.025 1.273-1.025.572 0 1.683.002 1.969 0V0h-.002z"/></symbol><symbol id="icon_instagram" viewBox="0 0 27 27"><path fill-rule="evenodd" clip-rule="evenodd" d="M3.353 0H22.77c1.845 0 3.353 1.365 3.353 3.353V22.77c0 1.987-1.509 3.352-3.353 3.352H3.353C1.508 26.123 0 24.759 0 22.771V3.353C0 1.365 1.508 0 3.353 0zM19.03 2.902a1.18 1.18 0 0 0-1.176 1.176v2.815A1.18 1.18 0 0 0 19.03 8.07h2.953a1.18 1.18 0 0 0 1.176-1.177V4.08a1.18 1.18 0 0 0-1.176-1.177H19.03zm4.14 8.145h-2.298c.217.71.335 1.463.335 2.241 0 4.346-3.636 7.868-8.12 7.868-4.485 0-8.12-3.522-8.12-7.868 0-.779.117-1.53.335-2.24H2.903v11.034c0 .571.467 1.039 1.039 1.039h18.19c.572 0 1.04-.467 1.04-1.039V11.047h-.001zM13.087 7.921c-2.897 0-5.246 2.276-5.246 5.084s2.349 5.084 5.246 5.084c2.898 0 5.247-2.276 5.247-5.084s-2.349-5.084-5.247-5.084z"/></symbol><symbol id="icon_login" viewBox="0 0 19 19"><path d="M1 14.5v.5a3 3 0 0 0 3 3h11a3 3 0 0 0 3-3V4a3 3 0 0 0-3-3H4a3 3 0 0 0-3 3v.5" stroke-width="1.5" stroke-linecap="round"/><path stroke-width="1.25" stroke-linecap="round" d="M11.543 9.541L8.884 12.2"/><path transform="rotate(-135.001 8.19 2.197)" stroke-width="1.25" stroke-linecap="round" d="M.625-.625h3.76"/><path stroke-width="1.25" stroke-linecap="round" d="M10.375 9.625h-3.75"/></symbol><symbol id="icon_logo" viewBox="0 0 396.07 150.39"><path class="cls-1" d="M135.49 11c-3.72.39-6.06 2.76-5.72 5.7q1.74 15.15 3.47 30.3c.35 2.94 3 4.73 6.47 4.37Q154.35 49.79 169 49q-.66-11.88-1.31-23.74-7.65.42-15.29 1l1.09 13.59q-3 .22-5.94.5-.9-10.08-1.81-20.16 9.4-.84 18.83-1.41c.72-1.76 1.45-3.53 2.18-5.29-.09-1.68-.19-3.36-.28-5Q151 9.33 135.49 11zm53.13 26.17q.13 5.53.28 11.07 7.32-.18 14.66-.19V37q5.85-12.24 12.16-24.37l.1-5q-7.83-.15-15.66-.1-1.89 7.91-3.68 15.81h-1.12q-2-7.86-4-15.71c-5.24.11-10.48.27-15.71.51.07 1.68.15 3.36.22 5q6.59 11.95 12.75 24.03zM238 49.11q6.15.36 12.29.85 2.58-9.57 5.29-19.11l1.24.1-1.7 19.42q7.14.62 14.27 1.42c.19-1.67.38-3.34.56-5q-.42-17.94-1.12-35.88Q260 10 251.24 9.32q-2.51 7.83-4.92 15.69l-1-.07q-1.32-8.11-2.75-16.22-8.74-.56-17.5-.86-3.21 17.67-6.14 35.38l-.14 5q7.2.19 14.39.56.49-9.72 1-19.46l1.18.07q1.35 9.87 2.64 19.7zm-84.84 73q4.67-.4 9.33-.74.78-8.48 1.65-17l.94-.07 1.08 16.77c3.62-.23 7.24-.43 10.86-.58-.06-1.45-.12-2.9-.19-4.35q-2.49-15.22-5.19-30.44-6.66.33-13.32.83-.93 7-1.79 14l-.79.06q-2-6.77-4-13.52c-4.41.38-8.83.81-13.23 1.3q-.28 15.43-.36 30.88l.51 4.32q5.43-.63 10.88-1.15l-1.6-16.73.89-.08q2.17 8.25 4.33 16.5zm53.17-1.83c0-2.92.07-5.84.1-8.75q-6.48-.09-13 0l-.06-4.8h11.26c0-2.92.05-5.84.08-8.75Q199 97.9 193.3 98c0-1.3 0-2.6-.05-3.9q5.76-.08 11.52 0 1-2.22 1.93-4.43l.06-4.35q-12.73-.15-25.48.26.58 17.49 1.15 35 11.96-.45 23.9-.3zm18.15-15.5q.77-5.16 1.54-10.34l1.28.07q.28 5.22.55 10.44zm-7.3-19.48q-3.12 15.24-6 30.5l-.09 4.35q5.56.12 11.13.35c.33-2.34.67-4.67 1-7 1.66.07 3.31.15 5 .24.1 2.36.2 4.71.29 7.07q5.58.3 11.16.72l.33-4.34q-1.38-15.47-3-30.93-9.92-.67-19.82-.96zm28.1 36.7q11.16 1 22.27 2.38l1.11-8.68q-5.66-.7-11.36-1.36l2.79-26.1q-5.91-.63-11.82-1.14l-3 34.87z"/><path class="cls-2" d="M119.53 1.92c.65.69-.06 1.79-1 2.47s-6.7 2.11-5.64 7.19S121 19.25 120 24.36s.81 11 .81 11-6.4-4.29-6.34-9.22-3.27 4.2-3.27 4.2a7.61 7.61 0 0 1-2.78-5.28c-.09-3.24.36-3.94.36-3.94l-2.45 2.36s0-3.71-1.6-1.38a11.11 11.11 0 0 1-6.42 3.67 12.17 12.17 0 0 1-6.18-1.14s7.63-3.76 8.81-7.49 9.37-3.67 9.22-5.41c-.11-1.36 1.54-11 5.5-11.77.64-.12 1.06.72 1.83 1.15.51.36 1.41.13 2.04.81zM80.41 18.43C72 8.87 51.83 31.44 40.79 58.51c-10 24.58-12.53 52.87 8.11 64.18 43.36 23.77 29.73-43.76 27.58-61.78s9.6-36.03 3.93-42.48zM41.51 63.1a127.57 127.57 0 0 1 25.93-40.74 18.92 18.92 0 0 1 2.06-2s-.76.7-2.06 2C64.15 26 56.9 35.27 45.72 56.7c-15.82 30.3-6.34 52.35-6.34 52.35s-8.51-18.92 2.13-45.95zm13.1 42.82c-.88 8.49-10.8 5.58-13.53-1.77-.74-2 2.41-5.72 6.21-10.14s8.2 3.42 7.32 11.91zm16.76.49C69.51 125.68 57 119.85 57 119.85S67.22 124 69.48 106.3s-7.71-44.78-1.89-58.08l.63-1.46A62.3 62.3 0 0 1 76.67 27s-3 7.38-8.45 19.78a62.72 62.72 0 0 0-1.49 9.09c-.73 12.77 6.49 31.27 4.64 50.54z"/><path class="cls-2" d="M47.19 98.53c-2.61 2.76-3.62 12.31 3 7.58 3.23-2.27-.38-10.35-3-7.58zm70.17-34.48s34.82-8 82.78-8c47.23 0 80.37 8 80.37 8a79.44 79.44 0 0 1 3.59 9.15 81 81 0 0 1 2.32 9.88s-37.22-8-86.28-8c-47.78 0-79.56 8-79.56 8A44.83 44.83 0 0 1 118.07 73c-.57-5.24-.71-8.95-.71-8.95zm251.88-13.52c-.35 2.08-.76 6.82 5.3 7.15s14.31-9.68 13.46-11c-5.43-8.33-16.28 6.77-12 7.71-1.68-.39-6.44-5.78-6.76-3.86z"/><path class="cls-2" d="M369.24 50.53c-.35 2.08-.76 6.82 5.3 7.15s14.31-9.68 13.46-11c-5.43-8.33-16.28 6.77-12 7.71-1.68-.39-6.44-5.78-6.76-3.86zM29.91 57.78s4.25-3.84 1.51-6.31-6.47.1-6.47.1-.61-5.63-4.78-6.21-5.1 4.42-5.1 4.42-2.13-4.91-6.35-2.17-1 6.46-1 6.46-6-1.73-7.51 3.2 4.83 7.42 4.83 7.42S.5 69.3 3.72 74s9.17.47 9.17.47a37.8 37.8 0 0 1 4.51 8.9c1.25 4.24-5.65 14.67 4.47 14.15s2.11-16.21 1-23.67 3.37-7.26 3.37-7.26 6 2.6 7.16-2.46a5.07 5.07 0 0 0-3.49-6.35zM12.63 72.09c-3.78-2.27 3.26-7.77 3.26-7.77a46.05 46.05 0 0 1 .4 5.11 11.33 11.33 0 0 0 .5 3.56s-.91 1.01-4.16-.9zm8.85-3.74a4 4 0 0 0-.69 2.84c-1.69-4.41-2.12-7 .69-7.68s1.35 2.56 0 4.84zm372.75-3.62c-5-7.69-16.13-2.81-18.89-3.18s-9.73-5.51-17.54.64-2.17 36.37 17.29 34.59 24.1-24.36 19.14-32.05zm-5.68 20.65s2.16-12.26-.78-15.25-3.77-7.13-1.19-6.74c0 0 6.08.2 6.14 7.24s-4.17 14.75-4.17 14.75zm-82.45 21.35c-1.25-12 7.87-42.39 7.84-62.49S295.77.34 293.85.79s-23.3 25.79-11.44 56.69c11 28.56 14.58 49.65 9.18 60.11s-12 28.64-10.89 29 22.37-10.78 27.26-7.35 7.38 10.76 9.11 11.09-9.72-31.6-10.97-43.6zm-17.63-81.92c-5.66.1-2.22-6.87-.22-6.87s5.89 6.77.22 6.87z"/><path class="cls-1" d="M353 21.77c-.76 0-6 1.36-7.54 1.29s-1.8-1.72-2-2.41-1.22-5.65-1.22-5.65-.51-1.93-1.26-1.87-1.63 1.73-2.2 3.58a58.89 58.89 0 0 1-2.44 6.19c-.62 1.26-1.45.69-1.92.52s-5.32-2.67-5.32-2.67-2.1-1-1.33 1.27a94.24 94.24 0 0 0 5 10.25c2.38 4.57 2.7 5.75 3 6.67.14.54-.13.72-.38.78H335a76.41 76.41 0 0 0-9.58 1.63 2.13 2.13 0 0 0-1.91 2.34c0 .64-.1 2.09-.21 4.4a4.12 4.12 0 0 1 4 0l-4.07.89c-.19 4-.43 10.28-.58 19l.39-.17c2.55-1 5.58.58 5.58.58a14.64 14.64 0 0 0-3.64.14 21.22 21.22 0 0 0-2.35.59c-.08 4.7-.12 10.08-.13 16.2 0 12.74 1.51 43.37 4.25 43.37 2.32 0 9.16-22.39 15-43l-2.13-.36a3.75 3.75 0 0 1 2.38-.52c1-3.42 1.91-6.79 2.79-10 3.39-12.29 5-19.3 5.81-23.39a16.9 16.9 0 0 0-4.29-1.73 37.88 37.88 0 0 0-5.66-.75s5.53-1.45 7.43-.46a9.57 9.57 0 0 1 2.64 2.32c.57-3 .65-4.26.73-4.9.19-1.5-.14-1.74-1-2.32s-7.5-3.36-7.71-3.46a3.36 3.36 0 0 1-.95-.57c-.71-.57-.62-.61-.22-1.33s2.47-3 6.42-7.47a59.34 59.34 0 0 0 6.12-7.66c.89-1.32-.31-1.29-1.11-1.32zm-24.82 31.41a8.6 8.6 0 0 1 4.54-1.86 12.19 12.19 0 0 1 5.82 1.45 29.63 29.63 0 0 0-5.08-.3 32.79 32.79 0 0 0-5.28.71zM332 90.83a13.32 13.32 0 0 0-3.34-.65 19.17 19.17 0 0 0-4 .32c4.34-2.85 7.34.33 7.34.33zm-7.36 10.24a8.36 8.36 0 0 1 3.36-1.31 7.79 7.79 0 0 1 3.5.69 15.33 15.33 0 0 0-3-.06 28.66 28.66 0 0 0-3.89.68zm4.55 14.45a7.4 7.4 0 0 0-2.05.15s1.14-1.52 2.27-1.07a4.6 4.6 0 0 1 1.79 1.4 7.85 7.85 0 0 0-2.04-.48zm2.53-10.79a4.82 4.82 0 0 0-1.71-.09s2.93-.87 3.72.91a9.39 9.39 0 0 0-2.04-.82zm1.57-25.48a24.32 24.32 0 0 0-5.77.23c8-3.71 10.33 1.08 10.33 1.08a15.73 15.73 0 0 0-4.59-1.31zm6.36-10.34a24.24 24.24 0 0 0-4.59-.2s4.32-1.26 6.57-.7a3.47 3.47 0 0 1 2.68 2.11 27.19 27.19 0 0 0-4.69-1.21zm4.49-7.91a29.84 29.84 0 0 0-4.84-1.33 39.32 39.32 0 0 0-5.71-.49s4.39-1.18 6.57-.66a9.28 9.28 0 0 1 3.98 2.48z"/><path class="cls-2" d="M115 81.76c-4.74-28.6-2.56-40.56 1.16-49.17a11.09 11.09 0 0 1-2.68-5.28c-.47 1-1 2.27-1.41 3.42l-.43 1.27-1.08-.82a8.61 8.61 0 0 1-3.17-6.06v-1.25l-2.07 2v-2.84a12.45 12.45 0 0 1-6.88 3.79c-.24 0-.48 0-.72.06-3.57 6.51-7.07 15.75-9.79 27.76-6.82 30.14-5.41 62.15 5.19 81.71s25.82 13.43 33 1.82-6.26-27.26-11.12-56.41z"/></symbol><symbol id="icon_phone" viewBox="0 0 17 18"><path d="M4.993 2.131l1.103 1.592c.471.68.345 1.606-.29 2.135-.532.443-.712 1.177-.348 1.765A15.07 15.07 0 0 0 7.6 10.289c.89.89 1.685 1.479 2.294 1.846.609.369 1.335.12 1.749-.458a1.734 1.734 0 0 1 2.396-.418l1.39.961a2 2 0 0 1 .558 2.706l-.513.82a1.264 1.264 0 0 1-.383.415c-1.22.766-4.405.9-9.17-3.86C1.457 7.842.778 4.427 1.053 2.819c.066-.388.346-.689.68-.897l.557-.348a2 2 0 0 1 2.703.557z"/></symbol><symbol id="icon_plus" viewBox="0 0 13 14"><path d="M7.383 6.328h5.191v1.313H7.383v5.648H5.965V7.641H.879V6.328h5.086V.868h1.418v5.46z"/></symbol><symbol id="icon_polygon_1" viewBox="0 0 59 54"><path d="M19.08 46.501L3.194 20.321c-4.964-8.18.925-18.64 10.492-18.64H45.46c9.568 0 15.456 10.46 10.493 18.64l-15.886 26.18c-4.78 7.876-16.207 7.876-20.986 0z" stroke-width="2"/></symbol><symbol id="icon_polygon_2" viewBox="0 0 56 53"><path d="M19.904 48.742L5.425 35.656c-5.391-4.873-5.391-13.338 0-18.211L19.904 4.359a12.274 12.274 0 0 1 16.46 0l14.478 13.086c5.391 4.873 5.391 13.337 0 18.21L36.364 48.743a12.274 12.274 0 0 1-16.46 0z" stroke-width="2"/></symbol><symbol id="icon_polygon_3" viewBox="0 0 55 54"><path d="M20.293 50.24L6.194 40.067a12.273 12.273 0 0 1-4.484-13.77L7.057 9.956A12.274 12.274 0 0 1 18.722 1.5h17.503a12.274 12.274 0 0 1 11.666 8.457l5.347 16.34a12.274 12.274 0 0 1-4.484 13.771l-14.1 10.171a12.273 12.273 0 0 1-14.361 0z"/></symbol><symbol id="icon_polygon_4" viewBox="0 0 55 59"><path d="M21.696 56l-13.8-7.91a12.274 12.274 0 0 1-6.169-10.648v-15.66c0-4.398 2.354-8.46 6.17-10.647l13.799-7.91a12.274 12.274 0 0 1 12.208 0l13.8 7.91a12.273 12.273 0 0 1 6.168 10.648v15.66c0 4.398-2.353 8.46-6.169 10.647L33.904 56a12.274 12.274 0 0 1-12.208 0z"/></symbol><symbol id="icon_polygon_5" viewBox="0 0 59 59"><path d="M24.105 56.013l-12.939-6.187A12.274 12.274 0 0 1 4.5 41.502L1.34 27.751a12.274 12.274 0 0 1 2.39-10.435l8.9-11.082a12.276 12.276 0 0 1 9.57-4.588h14.398c3.72 0 7.24 1.687 9.57 4.588l8.9 11.082A12.274 12.274 0 0 1 57.46 27.75L54.3 41.502a12.274 12.274 0 0 1-6.667 8.324l-12.939 6.187a12.274 12.274 0 0 1-10.59 0z"/></symbol><symbol id="icon_polygon_6" viewBox="0 0 61 61"><path d="M26.07 58.651L14.1 53.728a12.274 12.274 0 0 1-6.659-6.626L2.533 35.338a12.274 12.274 0 0 1 0-9.45l4.908-11.765A12.274 12.274 0 0 1 14.1 7.497l11.97-4.924a12.274 12.274 0 0 1 9.338 0l11.97 4.924a12.274 12.274 0 0 1 6.66 6.626l4.907 11.764a12.274 12.274 0 0 1 0 9.45l-4.907 11.765a12.274 12.274 0 0 1-6.66 6.626l-11.97 4.923a12.274 12.274 0 0 1-9.337 0z"/></symbol><symbol id="icon_profile_icon_1" viewBox="0 0 14 13"><path d="M5.5 11.5a1 1 0 1 1-2 0 1 1 0 0 1 2 0zm6 0a1 1 0 1 1-2 0 1 1 0 0 1 2 0z"/><path d="M1 1l1 2m0 0h9.58c.65 0 1.13.62.97 1.25l-.77 3c-.12.44-.51.75-.97.75H4.5c-.43 0-.8-.26-.95-.66L2 3z" stroke-width="2" stroke-linecap="round"/></symbol><symbol id="icon_profile_icon_2" viewBox="0 0 14 14"><path d="M7 13A6 6 0 1 0 7 1a6 6 0 0 0 0 12z" stroke-width="2"/><path d="M5 9.03c.4.58 1.14.97 1.99.97.86 0 1.62-.4 2.01-1" stroke-width="2" stroke-linecap="round"/></symbol><symbol id="icon_profile_icon_3" viewBox="0 0 12 14"><path d="M1 10a2.923 2.923 0 0 1 2.923-2.923h4.154A2.923 2.923 0 0 1 11 10v1.923a1 1 0 0 1-1 1H2a1 1 0 0 1-1-1V10z" stroke-width="2"/><path d="M6 8.385A3.692 3.692 0 1 0 6 1a3.692 3.692 0 0 0 0 7.385z" stroke-width="2" stroke-linecap="round" stroke-linejoin="round"/></symbol><symbol id="icon_refresh" viewBox="0 0 612.035 612.035"><path d="M323.128 56.236l5.646-9.57 40.17-40.169C271.247-13.921 165.482 13.786 89.65 89.646-16.421 195.717-28.355 360.261 53.875 479.49L10.98 522.386l137.7 19.667-19.667-137.7-34.968 34.967c-60.978-96.724-49.322-226.078 34.94-310.34 53.244-53.243 124.486-77.501 194.143-72.744zm258.264 13.743l-137.7-19.667 19.668 137.7 38.25-38.25c78.726 98.31 72.521 242.186-18.583 333.317-61.116 61.117-145.989 84.039-224.882 68.739l-45.65 45.649c105.654 33.799 226.05 8.791 309.895-75.054 112.858-112.858 119.146-291.979 18.805-412.209l40.197-40.225z"/></symbol><symbol id="icon_remove" viewBox="0 0 10 11"><path d="M9.091 10.245L5.33 6.484l-3.663 3.662-.891-.89 3.663-3.663L.677 1.83l.851-.85L5.29 4.74l3.683-3.68.89.89-3.682 3.683 3.762 3.762-.852.851z"/></symbol><symbol id="icon_search" viewBox="0 0 18 18"><path d="M12.833 6.905a5.667 5.667 0 1 1-11.333 0 5.667 5.667 0 0 1 11.333 0z" stroke-width="1.5"/><path transform="rotate(45 -8.91 17.714)" stroke-width="1.5" stroke-linecap="round" d="M.75-.75h7.574"/></symbol><symbol id="icon_serenity" viewBox="0 0 96 26"><path d="M5.095 5.81c.728 0 1.456.078 2.103.235.647.157 1.334.432 2.062.785v2.748c-.687-.432-1.415-.746-2.183-1.02-.769-.275-1.456-.393-2.063-.393-.525 0-.93.078-1.213.275-.283.196-.445.47-.445.785 0 .196.122.392.364.589.243.196.89.55 1.982 1.099 1.536.746 2.628 1.452 3.235 2.08a3.25 3.25 0 0 1 .93 2.316c0 1.257-.445 2.238-1.375 2.984-.89.707-2.143 1.1-3.68 1.1-.97 0-1.86-.119-2.71-.315a8.677 8.677 0 0 1-2.062-.746v-2.866c1.82.982 3.276 1.414 4.449 1.414.606 0 1.091-.118 1.455-.314.364-.197.567-.471.567-.825a.921.921 0 0 0-.203-.55 2.004 2.004 0 0 0-.606-.51c-.283-.196-1.132-.588-2.548-1.295-1.092-.51-1.9-1.06-2.426-1.649C.243 11.148 0 10.442 0 9.617 0 8.44.485 7.537 1.415 6.83c.93-.667 2.144-1.02 3.68-1.02zm13.143 0c1.982 0 3.56.628 4.732 1.845 1.172 1.217 1.739 2.944 1.739 5.103v.51h-9.584c.162 1.178.606 2.08 1.334 2.709.769.628 1.78.942 3.114.942.85 0 1.658-.157 2.467-.432a9.798 9.798 0 0 0 2.426-1.295v2.551c-1.577 1.1-3.518 1.61-5.742 1.61-2.143 0-3.882-.628-5.217-1.884-1.334-1.257-2.022-2.905-2.022-4.986 0-2.002.607-3.611 1.86-4.868C14.6 6.36 16.258 5.81 18.238 5.81zm3.114 5.417c-.08-.942-.404-1.688-.89-2.238-.485-.55-1.172-.824-2.062-.824-.89 0-1.617.275-2.143.785-.526.51-.89 1.256-1.051 2.277h6.146zm15.284-4.75a3.645 3.645 0 0 0-.647-.353 3.534 3.534 0 0 0-1.415-.314c-.768 0-1.496.274-2.143.863-.647.55-1.294 1.492-1.941 2.748h-.04V6.084h-3.56v13.112h3.56V13.19c0-.668.16-1.296.484-1.963a4.23 4.23 0 0 1 1.294-1.57c.526-.393 1.092-.59 1.618-.59.445 0 1.01.197 1.658.59l1.132-3.18zm23.051-.667c1.456 0 2.588.47 3.478 1.374.85.902 1.294 2.12 1.294 3.65v8.323H60.9v-7.97c0-.863-.202-1.53-.646-2.001-.405-.51-.971-.746-1.699-.746-.566 0-1.051.157-1.536.47-.486.315-1.011.825-1.578 1.571v8.715h-3.558V6.046h3.558V7.89c.647-.746 1.335-1.295 2.022-1.61a5.244 5.244 0 0 1 2.224-.47zM77.4 2.59h.282v3.495h6.713v2.63h-6.713v6.045c0 .589.203 1.06.567 1.413.364.354.849.55 1.496.55.808 0 1.78-.275 2.87-.864v2.748c-1.293.55-2.466.825-3.598.825-1.537 0-2.71-.393-3.559-1.217-.849-.825-1.294-1.885-1.294-3.259v-6.28h-2.103v-.55L77.4 2.59z"/><path d="M85.73 6.045l3.194 7.066 3.235-7.066h3.842L86.659 25.79h-3.8l4.286-9.03-5.257-10.716h3.841zM43.634 5.81c1.981 0 3.558.628 4.73 1.845 1.174 1.217 1.74 2.944 1.74 5.103v.51H40.56c.162 1.178.607 2.08 1.335 2.709.768.628 1.78.942 3.113.942.85 0 1.658-.157 2.467-.432a9.798 9.798 0 0 0 2.427-1.295v2.551c-1.578 1.1-3.519 1.61-5.743 1.61-2.143 0-3.882-.628-5.216-1.884-1.335-1.257-2.022-2.905-2.022-4.986 0-2.002.607-3.611 1.86-4.868 1.254-1.256 2.871-1.805 4.853-1.805zm3.113 5.417c-.08-.942-.404-1.688-.89-2.238-.484-.55-1.172-.824-2.062-.824-.89 0-1.617.275-2.143.785-.526.51-.89 1.256-1.051 2.277h6.146zM68.542 0c.566 0 1.011.196 1.415.589.405.392.607.824.607 1.374 0 .51-.202.981-.566 1.374-.405.392-.85.589-1.416.589a1.991 1.991 0 0 1-1.415-.59c-.404-.392-.606-.863-.606-1.373 0-.55.202-1.02.606-1.374.404-.393.85-.589 1.375-.589zm1.78 19.157h-3.56V6.045h3.56v13.112z"/></symbol><symbol id="icon_small_round_button" viewBox="0 0 69 30"><path d="M69 30H54.005V18.548a8.338 8.338 0 0 1 0-.548v.548C54.135 22.686 57.222 30 69 30zM0 30h13.996V18.548c.005-.19.005-.373 0-.548v.548C13.873 22.686 10.99 30 0 30z"/><path d="M34 0c11.046 0 20 8.954 20 20v10H14V20C14 8.954 22.954 0 34 0z"/></symbol><symbol id="icon_square" viewBox="0 0 219 219"><rect x="1.686" y="1.737" width="215.365" height="215.365" rx="9" stroke-width="2"/></symbol><symbol id="icon_star" viewBox="0 0 23 21"><path d="M11.5 0l2.582 7.946h8.355l-6.76 4.911 2.582 7.947-6.759-4.911-6.76 4.91 2.582-7.946-6.76-4.91h8.356L11.5 0z"/></symbol><symbol id="icon_tick" viewBox="0 0 25 21"><path d="M1 9.5l8.5 9L24 1" stroke-width="2"/></symbol><symbol id="icon_triangle" viewBox="0 0 187 165"><path d="M85.41 158.677L2.553 15.161c-3.464-6 .866-13.5 7.794-13.5h165.717c6.929 0 11.259 7.5 7.795 13.5L101 158.677c-3.464 6-12.124 6-15.588 0z" stroke-width="2"/></symbol><symbol id="icon_triangle_down" viewBox="0 0 187 165"><path d="M85.41 158.677L2.553 15.161c-3.464-6 .866-13.5 7.794-13.5h165.717c6.929 0 11.259 7.5 7.795 13.5L101 158.677c-3.464 6-12.124 6-15.588 0z" stroke-width="2"/></symbol><symbol id="icon_triangle_left" viewBox="0 0 184 163"><path d="M16.234 4.187C10.405-.861 1.342 3.279 1.342 10.99v141.626a9 9 0 0 0 9 9h163.536c8.333 0 12.191-10.348 5.892-15.803L16.234 4.187z" stroke-width="2"/></symbol><symbol id="icon_triangle_right" viewBox="0 0 185 163"><path d="M168.517 4.187c5.829-5.048 14.892-.908 14.892 6.803v141.627a9 9 0 0 1-9 9H10.873c-8.333 0-12.191-10.349-5.892-15.804L168.517 4.187z" stroke-width="2"/></symbol><symbol id="icon_triangle_up" viewBox="0 0 187 165"><path d="M100.999 6.354l82.859 143.515c3.464 6-.866 13.5-7.795 13.5H10.346c-6.928 0-11.258-7.5-7.794-13.5L85.411 6.354c3.464-6 12.124-6 15.588 0z" stroke-width="2"/></symbol><symbol id="icon_vk" viewBox="0 0 30 16"><path fill-rule="evenodd" clip-rule="evenodd" d="M29.31 1.067C29.52.44 29.31 0 28.324 0h-3.283c-.844 0-1.22.398-1.43.837 0 0-1.665 3.64-4.033 5.984-.774.69-1.102.9-1.524.9-.212 0-.516-.21-.516-.837V1.067C17.539.314 17.304 0 16.6 0h-5.159c-.515 0-.844.356-.844.67 0 .711 1.173.878 1.313 2.845v4.31c0 .942-.187 1.11-.61 1.11-1.101 0-3.821-3.641-5.416-7.826C5.557.335 5.252 0 4.408 0H1.125C.188 0 0 .398 0 .837c0 .774 1.102 4.624 5.182 9.709 2.72 3.473 6.542 5.357 10.012 5.357 2.087 0 2.345-.419 2.345-1.13v-2.637c0-.837.187-1.004.867-1.004.493 0 1.313.21 3.26 1.883 2.227 1.988 2.602 2.888 3.845 2.888h3.282c.938 0 1.407-.419 1.126-1.235-.305-.816-1.36-2.009-2.767-3.431-.774-.817-1.923-1.674-2.25-2.114-.493-.565-.353-.816 0-1.297 0-.021 4.009-5.043 4.407-6.759z"/></symbol></svg>