<svg width="42" height="42" viewBox="0 0 42 42" fill="none" xmlns="http://www.w3.org/2000/svg"><path d="M1.5 10.5H3 1.5zm0 24H0h1.5zm33 6V39v1.5zm-27 0V42v-1.5zm33-30H39h1.5zm0 24H42h-1.5zm-6-30V6 4.5zm-27 0V3v1.5zm33 12c.828 0 1.5-.675 1.5-1.5s-.672-1.5-1.5-1.5v3zm-39-3c-.828 0-1.5.675-1.5 1.5s.672 1.5 1.5 1.5v-3zm9-6c0 .825.672 1.5 1.5 1.5s1.5-.675 1.5-1.5h-3zm3-6C13.5.675 12.828 0 12 0s-1.5.675-1.5 1.5h3zm15 6c0 .825.672 1.5 1.5 1.5s1.5-.675 1.5-1.5h-3zm3-6C31.5.675 30.828 0 30 0s-1.5.675-1.5 1.5h3zM0 10.5v24h3v-24H0zM34.5 39h-27v3h27v-3zM39 10.5v24h3v-24h-3zM34.5 3h-27v3h27V3zm7.5 7.5C42 6.36 38.642 3 34.5 3v3c2.486 0 4.5 2.01 4.5 4.5h3zm-39 0C3 8.01 5.014 6 7.5 6V3C3.358 3 0 6.36 0 10.5h3zm-3 24C0 38.64 3.358 42 7.5 42v-3C5.014 39 3 36.99 3 34.5H0zM34.5 42c4.142 0 7.5-3.36 7.5-7.5h-3c0 2.49-2.014 4.5-4.5 4.5v3zm6-28.5h-39v3h39v-3zm-27-6v-6h-3v6h3zm18 0v-6h-3v6h3zM15.98 26.49a1.513 1.513 0 0 0-2.117.15 1.5 1.5 0 0 0 .158 2.115l1.959-2.265zm3.52 5.01l-.98 1.14c.306.255.703.39 1.103.36a1.525 1.525 0 0 0 1.03-.54L19.5 31.5zm8.652-8.04a1.504 1.504 0 0 0-.192-2.115 1.51 1.51 0 0 0-2.112.195l2.304 1.92zM14.02 28.755l4.5 3.885 1.96-2.28-4.5-3.87-1.96 2.265zm6.632 3.705l7.5-9-2.304-1.92-7.5 9 2.304 1.92z" fill="#fff"/></svg>