<svg width="42" height="42" viewBox="0 0 42 42" fill="none" xmlns="http://www.w3.org/2000/svg"><path d="M17.532 4.288c1.305-3.05 5.628-3.05 6.933 0l.307.715a3.76 3.76 0 0 0 4.869 2.014l.724-.292C33.445 5.5 36.5 8.55 35.268 11.63l-.29.73a3.76 3.76 0 0 0 2.015 4.86l.718.322c3.049 1.299 3.049 5.619 0 6.918l-.718.321a3.761 3.761 0 0 0-2.016 4.86l.29.73c1.234 3.08-1.822 6.13-4.902 4.905l-.724-.292a3.76 3.76 0 0 0-4.87 2.014l-.306.715c-1.305 3.05-5.628 3.05-6.933 0l-.306-.715a3.76 3.76 0 0 0-4.87-2.014l-.723.292C8.553 36.5 5.497 33.45 6.73 30.37l.29-.73a3.761 3.761 0 0 0-2.015-4.86l-.718-.321c-3.05-1.299-3.05-5.62 0-6.918l.718-.321a3.76 3.76 0 0 0 2.016-4.86l-.29-.73C5.496 8.55 8.552 5.5 11.632 6.724l.724.292a3.76 3.76 0 0 0 4.869-2.014l.306-.715z" stroke="#fff" stroke-width="2.919" stroke-linecap="round" stroke-linejoin="round"/><path d="M16.114 19.045a1.472 1.472 0 0 0-2.06.146 1.46 1.46 0 0 0 .154 2.058l1.906-2.204zm3.426 4.875l-.953 1.11c.297.247.683.379 1.072.35a1.484 1.484 0 0 0 1.002-.526l-1.121-.934zm8.419-7.824a1.463 1.463 0 0 0-.187-2.058 1.47 1.47 0 0 0-2.055.19l2.242 1.868zM14.208 21.25l4.379 3.78 1.906-2.218-4.379-3.766-1.906 2.204zm6.453 3.605l7.298-8.758-2.242-1.868-7.298 8.758 2.242 1.868z" fill="#fff"/></svg>