<svg width="42" height="43" viewBox="0 0 42 43" fill="none" xmlns="http://www.w3.org/2000/svg"><path d="M5.965 15.27a1.513 1.513 0 0 0-1.64-1.342c-.82.09-1.417.82-1.342 1.64l2.982-.298zm32.803.298a1.512 1.512 0 0 0-1.341-1.64 1.513 1.513 0 0 0-1.64 1.342l2.982.298zm-9.408 25.2v-1.492 1.491zm0-1.492H12.392v2.982H29.36v-2.982zm6.426-24.006l-1.983 19.98 2.967.299 1.998-19.98-2.982-.299zm-32.803.298l1.998 19.98 2.967-.297-1.983-19.98-2.982.297zm9.409 23.708a4.466 4.466 0 0 1-4.444-4.026l-2.967.299a7.444 7.444 0 0 0 7.41 6.71v-2.983zm16.968 2.982a7.445 7.445 0 0 0 7.41-6.71l-2.967-.297a4.466 4.466 0 0 1-4.443 4.025v2.982z" fill="#fff"/><path d="M20.875 25.857v5.965m7.455-5.965v5.965m-14.91-5.965v5.965M16.401 2l-4.473 11.929" stroke="#fff" stroke-width="2.982" stroke-linecap="round" stroke-linejoin="round"/><path d="M1.491 13.929c-.82 0-1.491.67-1.491 1.49s.671 1.492 1.491 1.492v-2.982zM40.26 16.91c.82 0 1.491-.671 1.491-1.491 0-.82-.671-1.491-1.491-1.491v2.982zm-38.768 0H40.26v-2.982H1.49v2.982z" fill="#fff"/><path d="M25.348 2l4.473 11.929" stroke="#fff" stroke-width="2.982" stroke-linecap="round" stroke-linejoin="round"/></svg>