<svg width="42" height="42" viewBox="0 0 42 42" fill="none" xmlns="http://www.w3.org/2000/svg"><path d="M14.423 18.077a2.192 2.192 0 1 0 0-4.385 2.192 2.192 0 0 0 0 4.385zm13.154 0a2.192 2.192 0 1 0 0-4.385 2.192 2.192 0 0 0 0 4.385z" fill="#fff"/><path d="M21 40c10.493 0 19-8.507 19-19S31.493 2 21 2 2 10.507 2 21s8.507 19 19 19z" stroke="#fff" stroke-width="2.923"/><path d="M10.872 26.846A11.688 11.688 0 0 0 21 32.692c4.4 0 8.244-2.426 10.231-6.021" stroke="#fff" stroke-width="2.923" stroke-linecap="round"/></svg>