<svg width="43" height="39" viewBox="0 0 43 39" fill="none" xmlns="http://www.w3.org/2000/svg"><path d="M11.3 22.3c1.7.5 3 1.45 3.9 2.85 1 1.3 1.5 2.9 1.5 4.8 0 2.4-.75 4.35-2.25 5.85s-3.35 2.25-5.55 2.25c-2.4 0-4.35-.75-5.85-2.25-1.4-1.6-2.1-3.55-2.1-5.85 0-1.2.1-2.35.3-3.45.3-1.2.85-2.9 1.65-5.1L9.2.7h7.2l-5.1 21.6zm25.5 0c1.7.5 3 1.45 3.9 2.85 1 1.3 1.5 2.9 1.5 4.8 0 2.4-.75 4.35-2.25 5.85s-3.35 2.25-5.55 2.25c-2.4 0-4.35-.75-5.85-2.25-1.4-1.6-2.1-3.55-2.1-5.85 0-1.2.1-2.35.3-3.45.3-1.2.85-2.9 1.65-5.1L34.7.7h7.2l-5.1 21.6z" fill="#75AC6C"/></svg>